<?xml version="1.0" standalone="no"?>
<!DOCTYPE svg PUBLIC "-//W3C//DTD SVG 20010904//EN"
 "http://www.w3.org/TR/2001/REC-SVG-20010904/DTD/svg10.dtd">
<svg version="1.0" xmlns="http://www.w3.org/2000/svg"
 width="141.000000pt" height="24.000000pt" viewBox="0 0 141.000000 24.000000"
 preserveAspectRatio="xMidYMid meet">

<g transform="translate(0.000000,24.000000) scale(0.100000,-0.100000)"
fill="#000000" stroke="none">
<path d="M60 175 l-54 -55 54 -55 c30 -30 57 -55 60 -55 16 0 110 94 110 110
0 16 -94 110 -110 110 -3 0 -30 -25 -60 -55z"/>
<path d="M630 120 c0 -83 1 -90 20 -90 19 0 20 7 20 90 0 83 -1 90 -20 90 -19
0 -20 -7 -20 -90z"/>
<path d="M1210 180 c0 -26 -2 -29 -22 -21 -42 15 -78 -12 -78 -59 0 -54 55
-91 88 -58 9 9 12 9 12 0 0 -7 9 -12 20 -12 19 0 20 7 20 90 0 83 -1 90 -20
90 -16 0 -20 -7 -20 -30z m-2 -76 c4 -29 -23 -51 -43 -34 -16 13 -20 42 -8 54
14 14 48 1 51 -20z"/>
<path d="M476 126 c-14 -41 -26 -79 -26 -85 0 -17 30 -13 36 4 8 20 70 20 78
0 3 -8 15 -15 26 -15 24 0 24 -1 7 41 -8 19 -22 55 -31 82 -14 37 -22 47 -41
47 -19 0 -26 -11 -49 -74z m57 -34 c-21 -5 -25 2 -17 34 l7 29 13 -30 c10 -25
10 -31 -3 -33z"/>
<path d="M730 163 c-40 -13 -52 -71 -24 -111 17 -24 53 -29 72 -10 9 9 12 9
12 0 0 -7 9 -12 20 -12 18 0 20 7 20 65 l0 64 -33 -1 c-19 -1 -38 1 -43 4 -5
3 -16 3 -24 1z m58 -57 c5 -26 -26 -50 -45 -35 -14 12 -17 41 -6 53 13 13 48
1 51 -18z"/>
<path d="M922 161 c-7 -4 -24 -6 -38 -3 -23 4 -24 3 -24 -63 0 -58 2 -66 18
-63 12 2 18 15 20 45 2 31 8 44 23 48 10 4 19 15 19 26 0 22 0 22 -18 10z"/>
<path d="M990 163 c-40 -13 -52 -71 -24 -111 17 -24 53 -29 72 -10 9 9 12 9
12 0 0 -7 9 -12 20 -12 18 0 20 7 20 65 l0 64 -33 -1 c-19 -1 -38 1 -43 4 -5
3 -16 3 -24 1z m58 -57 c5 -26 -26 -50 -45 -35 -14 12 -17 41 -6 53 13 13 48
1 51 -18z"/>
<path d="M1313 160 c-68 -27 -48 -130 26 -130 32 0 71 39 71 70 0 42 -56 76
-97 60z m55 -54 c5 -26 -26 -50 -45 -35 -14 12 -17 41 -6 53 13 13 48 1 51
-18z"/>
</g>
</svg>
